HIERARCHY
ROOT joint_Root
{
	OFFSET 0.0 0.0 0.0
	CHANNELS 6 Xposition Yposition Zposition Zrotation Xrotation Yrotation 
	JOINT Hips
	{
		OFFSET -0.726466 93.3139 -2.00062
		CHANNELS 6 Xposition Yposition Zposition Zrotation Xrotation Yrotation 
		JOINT Spine
		{
			OFFSET 15.7357 0.0 0.0
			CHANNELS 6 Xposition Yposition Zposition Zrotation Xrotation Yrotation 
			JOINT Chest
			{
				OFFSET 8.98455 -0.406207 0.0
				CHANNELS 6 Xposition Yposition Zposition Zrotation Xrotation Yrotation 
				JOINT Neck
				{
					OFFSET 16.3773 0.0 0.0
					CHANNELS 6 Xposition Yposition Zposition Zrotation Xrotation Yrotation 
					JOINT Head
					{
						OFFSET 6.45672 0.0 0.0
						CHANNELS 6 Xposition Yposition Zposition Zrotation Xrotation Yrotation 
						End Site
						{
							OFFSET 0.0 0.0 0.0
						}
					}
				}
				JOINT Shoulder_L
				{
					OFFSET 12.9942 -0.242716 4.98039
					CHANNELS 6 Xposition Yposition Zposition Zrotation Xrotation Yrotation 
					JOINT UpperArm_L
					{
						OFFSET 5.34809 0.0 0.0
						CHANNELS 6 Xposition Yposition Zposition Zrotation Xrotation Yrotation 
						JOINT LowerArm_L
						{
							OFFSET 24.3286 1.87007e-05 0.0
							CHANNELS 6 Xposition Yposition Zposition Zrotation Xrotation Yrotation 
							JOINT Hand_L
							{
								OFFSET 22.2916 0.0 0.0
								CHANNELS 6 Xposition Yposition Zposition Zrotation Xrotation Yrotation 
								End Site
								{
									OFFSET 0.0 0.0 0.0
								}
							}
						}
					}
				}
				JOINT Shoulder_R
				{
					OFFSET 12.9945 -0.242716 -4.98039
					CHANNELS 6 Xposition Yposition Zposition Zrotation Xrotation Yrotation 
					JOINT UpperArm_R
					{
						OFFSET -5.34813 0.0 0.0
						CHANNELS 6 Xposition Yposition Zposition Zrotation Xrotation Yrotation 
						JOINT LowerArm_R
						{
							OFFSET -24.3289 0.000322201 0.0
							CHANNELS 6 Xposition Yposition Zposition Zrotation Xrotation Yrotation 
							JOINT Hand_R
							{
								OFFSET -22.2915 -0.000108084 0.0
								CHANNELS 6 Xposition Yposition Zposition Zrotation Xrotation Yrotation 
								End Site
								{
									OFFSET 0.0 0.0 0.0
								}
							}
						}
					}
				}
			}
		}
		JOINT UpperLeg_L
		{
			OFFSET -2.19248 -6.46944 0.0
			CHANNELS 6 Xposition Yposition Zposition Zrotation Xrotation Yrotation 
			JOINT LowerLeg_L
			{
				OFFSET 39.0811 0.0 -1.23785e-05
				CHANNELS 6 Xposition Yposition Zposition Zrotation Xrotation Yrotation 
				JOINT Foot_L
				{
					OFFSET 40.9854 0.0 -1.26872e-05
					CHANNELS 6 Xposition Yposition Zposition Zrotation Xrotation Yrotation 
					JOINT Toes_L
					{
						OFFSET 11.7543 0.0 0.0
						CHANNELS 6 Xposition Yposition Zposition Zrotation Xrotation Yrotation 
						End Site
						{
							OFFSET 0.0 0.0 0.0
						}
					}
				}
			}
		}
		JOINT UpperLeg_R
		{
			OFFSET -2.19251 6.46944 0.0
			CHANNELS 6 Xposition Yposition Zposition Zrotation Xrotation Yrotation 
			JOINT LowerLeg_R
			{
				OFFSET -39.0811 -0.00228153 -0.0401928
				CHANNELS 6 Xposition Yposition Zposition Zrotation Xrotation Yrotation 
				JOINT Foot_R
				{
					OFFSET -40.9854 0.0 0.0
					CHANNELS 6 Xposition Yposition Zposition Zrotation Xrotation Yrotation 
					JOINT Toes_R
					{
						OFFSET -11.7543 0.0 0.0
						CHANNELS 6 Xposition Yposition Zposition Zrotation Xrotation Yrotation 
						End Site
						{
							OFFSET 0.0 0.0 0.0
						}
					}
				}
			}
		}
	}
}
MOTION
Frames:	6
Frame Time:	0.0333333
0.000000 0.000000 0.000000 0.000000 0.000000 -0.000000 88.129100 88.494200 137.162000 92.461000 -33.753100 7.011320 15.735700 0.000005 -0.000001 82.002000 84.446600 -80.348700 8.984550 -0.406207 -0.000000 3.259280 -1.608650 3.349140 16.377300 -0.000001 -0.000001 1.331070 -17.385800 5.401100 6.456720 -0.000001 -0.000000 6.346350 -22.578600 5.745250 12.994200 -0.242716 4.980390 -89.458700 -1.799500 -73.255900 5.348090 -0.000007 -0.000001 -67.319800 28.653400 -10.368500 24.328600 0.000019 0.000005 4.653900 7.810430 -30.924300 22.291600 -0.000001 0.000005 3.846530 5.520550 -7.383490 12.994500 -0.242716 -4.980390 87.216900 7.998340 -70.741800 -5.348130 -0.000001 -0.000004 -67.957800 26.415900 -9.460860 -24.328900 0.000322 -0.000009 3.641330 13.558300 -15.192600 -22.291500 -0.000108 -0.000004 8.099710 5.332950 -0.868096 -2.192480 -6.469440 -0.000000 -169.990000 -9.976210 -10.663500 39.081100 -0.000007 -0.000012 -0.003752 0.001242 71.767100 40.985400 -0.000006 -0.000013 1.569700 -5.213240 -40.550500 11.754300 -0.000000 0.000003 -0.009664 -0.101123 -20.696500 -2.192510 6.469440 -0.000001 -165.725000 14.082300 168.585000 -39.081100 -0.002282 -0.040193 -0.028851 0.062705 27.151400 -40.985400 0.000008 0.000006 16.626800 -8.026540 -63.862300 -11.754300 -0.000006 -0.000006 -0.013275 -0.126668 -21.738700
0.000000 0.000000 0.000000 0.000000 0.000000 -0.000000 85.994100 88.866600 139.404000 94.203600 -38.913400 7.931500 15.735700 0.000005 -0.000001 89.521100 84.493200 -88.434000 8.984550 -0.406207 -0.000000 3.249410 -0.134768 2.175660 16.377300 -0.000001 -0.000001 1.795530 -16.269200 5.833740 6.456720 -0.000001 -0.000000 6.595270 -22.261100 5.530670 12.994200 -0.242716 4.980390 -89.398000 -1.867350 -72.128000 5.348090 -0.000007 -0.000001 -69.279500 32.608400 -6.533870 24.328600 0.000019 0.000005 5.452810 10.076800 -28.618600 22.291600 -0.000001 0.000005 1.689990 5.510590 -6.962640 12.994500 -0.242716 -4.980390 87.373700 7.974820 -71.705100 -5.348130 -0.000001 -0.000004 -67.827700 29.271100 -12.928400 -24.328900 0.000322 -0.000009 4.070610 11.869900 -19.092300 -22.291500 -0.000108 -0.000004 9.529320 5.364260 -1.808050 -2.192480 -6.469440 -0.000000 -171.858000 -8.866840 -14.708000 39.081100 -0.000007 -0.000012 -0.070828 0.021227 73.321400 40.985400 -0.000006 -0.000013 2.115120 -6.826120 -42.941700 11.754300 -0.000000 0.000003 -0.009126 -0.096994 -20.527700 -2.192510 6.469440 -0.000001 -167.283000 13.287800 172.560000 -39.081100 -0.002282 -0.040193 -0.029711 0.069035 25.563600 -40.985400 0.000008 0.000006 17.319900 -3.857120 -66.177200 -11.754300 -0.000006 -0.000006 -0.012344 -0.120391 -21.481400
0.000000 0.000000 0.000000 0.000000 0.000000 -0.000000 84.007000 89.229400 141.451000 96.093700 -44.259400 8.358330 15.735700 0.000005 -0.000001 97.614700 84.697600 -97.019600 8.984550 -0.406207 -0.000000 2.739080 1.377880 1.156120 16.377300 -0.000001 -0.000001 2.007930 -15.160800 5.743990 6.456720 -0.000001 -0.000000 6.858140 -21.791300 4.903810 12.994200 -0.242716 4.980390 -89.303300 -2.044000 -71.173700 5.348090 -0.000007 -0.000001 -72.595500 34.217700 -2.086660 24.328600 0.000019 0.000005 6.577330 13.422400 -26.416800 22.291600 -0.000001 0.000005 -0.544311 5.495580 -6.353060 12.994500 -0.242716 -4.980390 87.709800 7.278960 -72.482000 -5.348130 -0.000001 -0.000004 -67.609400 32.590500 -16.816700 -24.328900 0.000322 -0.000009 4.349630 10.260500 -23.129300 -22.291500 -0.000108 -0.000004 9.887150 5.379010 -2.268510 -2.192480 -6.469440 -0.000000 -173.675000 -6.910940 -18.717400 39.081100 -0.000007 -0.000012 -0.125260 0.040818 71.953600 40.985400 -0.000006 -0.000013 3.696710 -8.253880 -46.175000 11.754300 -0.000000 0.000003 -0.009494 -0.099827 -20.643500 -2.192510 6.469440 -0.000001 -168.775000 12.364900 175.873000 -39.081100 -0.002282 -0.040193 -0.013707 0.039650 23.234500 -40.985400 0.000008 0.000006 18.958300 0.411761 -68.072200 -11.754300 -0.000006 -0.000006 -0.011214 -0.112498 -21.158200
0.000000 0.000000 0.000000 0.000000 0.000000 -0.000000 81.986600 89.603200 143.516000 98.574200 -49.997500 9.859270 15.735700 0.000005 -0.000001 106.303000 84.587300 -106.244000 8.984550 -0.406207 -0.000000 2.625810 3.033630 0.048084 16.377300 -0.000001 -0.000001 1.907630 -13.996200 5.598350 6.456720 -0.000001 -0.000000 7.004570 -21.304700 4.014330 12.994200 -0.242716 4.980390 -89.303400 -1.931750 -70.166300 5.348090 -0.000007 -0.000001 -75.939600 33.436500 2.196990 24.328600 0.000019 0.000005 6.679120 15.340900 -23.876000 22.291600 -0.000001 0.000005 -1.906230 5.476840 -5.627210 12.994500 -0.242716 -4.980390 87.973000 6.811370 -73.384300 -5.348130 -0.000001 -0.000004 -66.480700 35.836500 -21.097000 -24.328900 0.000322 -0.000009 4.590350 9.037840 -27.078900 -22.291500 -0.000108 -0.000004 9.505300 5.385880 -2.483940 -2.192480 -6.469440 -0.000000 -175.218000 -4.229860 -20.808000 39.081100 -0.000007 -0.000012 -0.134775 0.055930 67.464100 40.985400 -0.000006 -0.000013 5.577790 -9.602300 -50.428000 11.754300 -0.000000 0.000003 -0.007667 -0.085299 -20.049900 -2.192510 6.469440 -0.000001 -170.571000 10.076200 -179.994000 -39.081100 -0.002282 -0.040193 -0.003345 0.018244 20.071600 -40.985400 0.000008 0.000006 20.722900 3.550270 -69.440300 -11.754300 -0.000006 -0.000006 -0.010680 -0.108648 -21.000600
0.000000 0.000000 0.000000 0.000000 0.000000 -0.000000 80.094200 89.902900 145.563000 101.376000 -55.551800 11.535800 15.735700 0.000005 -0.000001 114.509000 84.430900 -114.899000 8.984550 -0.406207 -0.000000 2.391900 4.635210 -0.877367 16.377300 -0.000001 -0.000001 1.661560 -12.982500 5.214680 6.456720 -0.000001 -0.000000 6.868800 -20.838300 3.356610 12.994200 -0.242716 4.980390 -89.351500 -1.706180 -69.185800 5.348090 -0.000007 -0.000001 -78.773200 30.735400 5.515920 24.328600 0.000019 0.000005 5.957140 16.131400 -20.585400 22.291600 -0.000001 0.000005 -2.077190 5.461250 -5.045710 12.994500 -0.242716 -4.980390 88.175900 6.487280 -74.258500 -5.348130 -0.000001 -0.000004 -64.215900 38.975300 -25.618600 -24.328900 0.000322 -0.000009 5.087930 8.458990 -31.190800 -22.291500 -0.000108 -0.000004 9.337510 5.398780 -2.898260 -2.192480 -6.469440 -0.000000 -176.303000 -1.583840 -22.449600 39.081100 -0.000007 -0.000012 -0.103439 0.058458 60.529200 40.985400 -0.000006 -0.000013 7.252390 -11.357000 -53.892800 11.754300 -0.000000 0.000003 -0.007640 -0.085079 -20.041000 -2.192510 6.469440 -0.000001 -172.224000 7.276670 -176.150000 -39.081100 -0.002282 -0.040193 -0.001317 0.015802 16.379100 -40.985400 0.000008 0.000006 23.124600 5.986630 -70.568800 -11.754300 -0.000006 -0.000006 -0.011284 -0.112993 -21.178500
0.000000 0.000000 0.000000 0.000000 0.000000 -0.000000 78.240300 90.123200 147.561000 104.258000 -60.336600 13.414800 15.735700 0.000005 -0.000001 119.861000 84.207400 -120.591000 8.984550 -0.406207 -0.000000 2.329770 5.798600 -1.577280 16.377300 -0.000001 -0.000001 1.203660 -12.041000 4.632450 6.456720 -0.000001 -0.000000 6.389640 -20.397600 2.989530 12.994200 -0.242716 4.980390 -89.406300 -1.492280 -68.302000 5.348090 -0.000007 -0.000001 -80.760400 27.311000 7.391010 24.328600 0.000019 0.000005 5.394500 17.684700 -17.269200 22.291600 -0.000001 0.000005 -1.710290 5.436120 -4.151730 12.994500 -0.242716 -4.980390 88.351800 6.194040 -75.067400 -5.348130 -0.000001 -0.000004 -61.540300 41.243200 -30.212200 -24.328900 0.000322 -0.000009 5.512670 7.907560 -35.056100 -22.291500 -0.000108 -0.000004 9.135300 5.415050 -3.433280 -2.192480 -6.469440 -0.000000 -176.861000 0.122948 -23.648600 39.081100 -0.000007 -0.000012 -0.056893 0.045234 51.515100 40.985400 -0.000006 -0.000013 8.048940 -11.899400 -55.276800 11.754300 -0.000000 0.000003 -0.008917 -0.095372 -20.461400 -2.192510 6.469440 -0.000001 -173.968000 4.963630 -173.532000 -39.081100 -0.002282 -0.040193 -0.013156 0.065121 14.207500 -40.985400 0.000008 0.000006 23.666200 8.795870 -71.175000 -11.754300 -0.000006 -0.000006 -0.011225 -0.112574 -21.161300
